<?xml version="1.0" encoding="UTF-8"?>
<svg version="1.1" xmlns="http://www.w3.org/2000/svg" width="200" height="200">
<path d="M0 0 C66 0 132 0 200 0 C200 66 200 132 200 200 C134 200 68 200 0 200 C0 134 0 68 0 0 Z " fill="#F9F9F9" transform="translate(0,0)"/>
<path d="M0 0 C7.59 0 15.18 0 23 0 C23.33 19.47 23.66 38.94 24 59 C25.32 55.37 26.64 51.74 28 48 C30 43.5 30 43.5 30.99609375 41.31640625 C32.48065207 37.89094678 33.72520081 34.38859686 34.97265625 30.87109375 C37.34776314 24.23343761 39.91405507 17.69491654 42.625 11.1875 C43.24312476 9.70221262 43.86034989 8.21655045 44.4765625 6.73046875 C44.74549316 6.08489014 45.01442383 5.43931152 45.29150391 4.77416992 C45.91834274 3.20448081 46.46550483 1.6034855 47 0 C53.27 0 59.54 0 66 0 C66 40.26 66 80.52 66 122 C58.74 122 51.48 122 44 122 C43.67 103.19 43.34 84.38 43 65 C42.34 66.98 41.68 68.96 41 71 C40.36265845 72.51226818 39.70065875 74.01443621 39.01171875 75.50390625 C38.45061401 76.72871704 38.45061401 76.72871704 37.87817383 77.97827148 C37.28879028 79.2574646 37.28879028 79.2574646 36.6875 80.5625 C33.61558059 87.29702207 30.76585795 94.02655413 28.1875 100.96484375 C26.43447221 105.44544438 24.39126786 109.77832642 22.33203125 114.125 C21.13380152 116.71120844 20.05857605 119.35355988 19 122 C12.73 122 6.46 122 0 122 C0 81.74 0 41.48 0 0 Z " fill="#030303" transform="translate(84,25)"/>
<path d="M0 0 C0.495 0.28875 0.99 0.5775 1.5 0.875 C1.5 1.535 1.5 2.195 1.5 2.875 C2.09554687 3.1225 2.69109375 3.37 3.3046875 3.625 C7.9523721 6.27136845 10.70158036 11.43078138 12.328125 16.41015625 C13.45687744 21.62660501 13.55628831 26.55575444 13.5 31.875 C10.97980028 32.21385038 8.45901484 32.54620335 5.9375 32.875 C5.23302734 32.97039063 4.52855469 33.06578125 3.80273438 33.1640625 C-0.67367855 33.74166417 -4.98661238 33.96989383 -9.5 33.875 C-9.60957031 32.88757812 -9.71914063 31.90015625 -9.83203125 30.8828125 C-10.06986328 28.96082031 -10.06986328 28.96082031 -10.3125 27 C-10.46332031 25.72382812 -10.61414062 24.44765625 -10.76953125 23.1328125 C-11.16848082 19.59729684 -11.16848082 19.59729684 -14.5 17.875 C-17.5 17.375 -17.5 17.375 -20.5 17.875 C-23.19135814 20.68061391 -23.95090299 22.77088448 -24 26.625 C-23.8366224 32.17166958 -21.86695959 35.59541716 -18.5 39.875 C-17.88769531 40.69097656 -17.27539062 41.50695312 -16.64453125 42.34765625 C-14.42618233 44.96199459 -12.14474925 46.90277893 -9.4375 49 C2.66305039 58.73867825 13.8909159 68.94018058 16.5 84.875 C17.49725086 94.26885687 16.18373588 102.56129249 10.734375 110.421875 C6.61392076 115.3858868 2.54997425 118.64476509 -3.5 120.875 C-4.5725 121.2875 -5.645 121.7 -6.75 122.125 C-17.36812242 124.24862448 -28.71461823 123.33026657 -37.95703125 117.26171875 C-39.97507248 115.57315364 -41.74569315 113.833397 -43.5 111.875 C-44.263125 111.029375 -45.02625 110.18375 -45.8125 109.3125 C-49.64254904 101.51054825 -51.01861129 92.51852158 -50.5 83.875 C-47.68221187 82.46610594 -44.92810953 82.25947905 -41.8125 81.8125 C-40.01232422 81.54759766 -40.01232422 81.54759766 -38.17578125 81.27734375 C-34.58314137 80.88410049 -31.11067071 80.80547489 -27.5 80.875 C-27.40203125 81.81601563 -27.3040625 82.75703125 -27.203125 83.7265625 C-26.48801463 93.28216809 -26.48801463 93.28216809 -21.5 100.875 C-18.43394415 101.34099813 -15.57306404 101.22958431 -12.5 100.875 C-10.48230263 94.8219079 -10.62142963 88.19123098 -12.875 82.25 C-18.76343998 73.68879293 -27.6901978 66.2346462 -35.97265625 60.01953125 C-38.69587645 57.70879262 -40.56545171 55.34913592 -42.625 52.4375 C-43.28757812 51.51066406 -43.95015625 50.58382812 -44.6328125 49.62890625 C-51.43859438 39.59108987 -51.65617682 29.81284331 -50.5 17.875 C-49.45140432 14.17905288 -48.02152751 11.74211757 -45.5 8.875 C-44.73816406 7.9159375 -44.73816406 7.9159375 -43.9609375 6.9375 C-39.61059346 1.98924138 -34.67881841 -0.1158038 -28.5 -2.125 C-19.77933615 -5.03188795 -8.29251547 -3.73163196 0 0 Z " fill="#050505" transform="translate(54.5,26.125)"/>
<path d="M0 0 C8.91 0 17.82 0 27 0 C27 40.59 27 81.18 27 123 C18.09 123 9.18 123 0 123 C0 82.41 0 41.82 0 0 Z " fill="#060606" transform="translate(169,24)"/>
<path d="M0 0 C1.22847656 -0.03738281 2.45695313 -0.07476562 3.72265625 -0.11328125 C6.9375 0.3125 6.9375 0.3125 8.87109375 2.33203125 C9.22300781 2.98558594 9.57492188 3.63914063 9.9375 4.3125 C10.5975 2.9925 11.2575 1.6725 11.9375 0.3125 C13.2575 0.3125 14.5775 0.3125 15.9375 0.3125 C15.9375 0.9725 15.9375 1.6325 15.9375 2.3125 C16.5975 2.3125 17.2575 2.3125 17.9375 2.3125 C17.9375 1.6525 17.9375 0.9925 17.9375 0.3125 C24.5375 0.3125 31.1375 0.3125 37.9375 0.3125 C37.9375 1.3025 37.9375 2.2925 37.9375 3.3125 C36.2875 3.3125 34.6375 3.3125 32.9375 3.3125 C32.9375 4.3025 32.9375 5.2925 32.9375 6.3125 C34.2575 6.3125 35.5775 6.3125 36.9375 6.3125 C36.9375 6.9725 36.9375 7.6325 36.9375 8.3125 C35.6175 8.3125 34.2975 8.3125 32.9375 8.3125 C32.9375 9.3025 32.9375 10.2925 32.9375 11.3125 C34.5875 11.3125 36.2375 11.3125 37.9375 11.3125 C39.5875 8.0125 41.2375 4.7125 42.9375 1.3125 C44.2575 1.3125 45.5775 1.3125 46.9375 1.3125 C48.2575 4.9425 49.5775 8.5725 50.9375 12.3125 C49.9475 12.6425 48.9575 12.9725 47.9375 13.3125 C47.9375 12.6525 47.9375 11.9925 47.9375 11.3125 C45.9575 11.3125 43.9775 11.3125 41.9375 11.3125 C41.9375 12.3025 41.9375 13.2925 41.9375 14.3125 C39.95840602 14.33936553 37.97921029 14.35883375 36 14.375 C34.89785156 14.38660156 33.79570312 14.39820313 32.66015625 14.41015625 C29.9375 14.3125 29.9375 14.3125 28.9375 13.3125 C28.86570036 11.79321962 28.85357993 10.27082518 28.875 8.75 C28.88402344 7.92371094 28.89304688 7.09742188 28.90234375 6.24609375 C28.91394531 5.60800781 28.92554688 4.96992188 28.9375 4.3125 C27.9475 4.3125 26.9575 4.3125 25.9375 4.3125 C25.9375 7.2825 25.9375 10.2525 25.9375 13.3125 C24.6175 13.6425 23.2975 13.9725 21.9375 14.3125 C20.9375 13.3125 20.9375 13.3125 20.83984375 11.24609375 C20.85144531 10.42238281 20.86304688 9.59867188 20.875 8.75 C20.88402344 7.92371094 20.89304688 7.09742188 20.90234375 6.24609375 C20.91394531 5.60800781 20.92554688 4.96992188 20.9375 4.3125 C18.05283524 4.07211127 16.30054771 4.13097614 13.6875 5.4375 C11.36269992 7.92835723 11.23374042 9.97979525 10.9375 13.3125 C9.9475 13.3125 8.9575 13.3125 7.9375 13.3125 C6.4525 8.8575 6.4525 8.8575 4.9375 4.3125 C3.2875 3.9825 1.6375 3.6525 -0.0625 3.3125 C-0.0625 6.6125 -0.0625 9.9125 -0.0625 13.3125 C-1.3825 13.3125 -2.7025 13.3125 -4.0625 13.3125 C-4.0625 10.3425 -4.0625 7.3725 -4.0625 4.3125 C-5.0525 4.3125 -6.0425 4.3125 -7.0625 4.3125 C-7.0625 7.2825 -7.0625 10.2525 -7.0625 13.3125 C-8.3825 13.3125 -9.7025 13.3125 -11.0625 13.3125 C-11.0625 9.3525 -11.0625 5.3925 -11.0625 1.3125 C-7.20007618 0.34689404 -3.96652774 0.07924714 0 0 Z " fill="#242424" transform="translate(130.0625,163.6875)"/>
<path d="M0 0 C2.64 0 5.28 0 8 0 C8.33 0.99 8.66 1.98 9 3 C9.99 2.34 10.98 1.68 12 1 C14.33199388 0.92094936 16.66832622 0.91201231 19 1 C19 1.66 19 2.32 19 3 C17.02 3.66 15.04 4.32 13 5 C13.33 6.65 13.66 8.3 14 10 C15.65 10.33 17.3 10.66 19 11 C18.67 11.99 18.34 12.98 18 14 C14.85375007 14.26218749 13.38162983 14.24754367 10.6875 12.5 C10.130625 12.005 9.57375 11.51 9 11 C9 11.99 9 12.98 9 14 C6.03 14 3.06 14 0 14 C0 9.38 0 4.76 0 0 Z " fill="#B1B1B1" transform="translate(73,164)"/>
<path d="M0 0 C2.64 0 5.28 0 8 0 C8 0.66 8 1.32 8 2 C6.35 2 4.7 2 3 2 C3 2.99 3 3.98 3 5 C4.32 5 5.64 5 7 5 C7 5.66 7 6.32 7 7 C5.68 7 4.36 7 3 7 C3 7.99 3 8.98 3 10 C4.65 10 6.3 10 8 10 C9.65 6.7 11.3 3.4 13 0 C14.32 0 15.64 0 17 0 C18.32 3.63 19.64 7.26 21 11 C20.01 11.33 19.02 11.66 18 12 C18 11.34 18 10.68 18 10 C16.02 10 14.04 10 12 10 C12 10.99 12 11.98 12 13 C8.04 13 4.08 13 0 13 C0 8.71 0 4.42 0 0 Z " fill="#2C2C2C" transform="translate(160,165)"/>
<path d="M0 0 C1.32 0 2.64 0 4 0 C4 0.66 4 1.32 4 2 C4.66 2 5.32 2 6 2 C6 1.34 6 0.68 6 0 C12.6 0 19.2 0 26 0 C26 0.33 26 0.66 26 1 C23.36 1 20.72 1 18 1 C18 4.96 18 8.92 18 13 C17.67 13 17.34 13 17 13 C17 10.03 17 7.06 17 4 C16.01 4 15.02 4 14 4 C14 6.97 14 9.94 14 13 C12.68 13.33 11.36 13.66 10 14 C9 13 9 13 8.90234375 10.93359375 C8.91394531 10.10988281 8.92554688 9.28617188 8.9375 8.4375 C8.94652344 7.61121094 8.95554688 6.78492188 8.96484375 5.93359375 C8.97644531 5.29550781 8.98804688 4.65742188 9 4 C5.28400809 3.79913557 4.22791555 3.8480563 1 6 C1.66 4.35 2.32 2.7 3 1 C2.01 0.67 1.02 0.34 0 0 Z " fill="#C2C2C2" transform="translate(142,164)"/>
<path d="M0 0 C2.475 0.495 2.475 0.495 5 1 C6.3125 3.5625 6.3125 3.5625 7 6 C7.598125 5.01 8.19625 4.02 8.8125 3 C9.8953125 1.515 9.8953125 1.515 11 0 C11.99 0 12.98 0 14 0 C14 3.96 14 7.92 14 12 C13.34 12 12.68 12 12 12 C11.67 10.02 11.34 8.04 11 6 C10.34 7.65 9.68 9.3 9 11 C8.01 11 7.02 11 6 11 C5.34 9.68 4.68 8.36 4 7 C3.67 8.65 3.34 10.3 3 12 C2.01 12 1.02 12 0 12 C0 8.04 0 4.08 0 0 Z " fill="#303030" transform="translate(182,165)"/>
<path d="M0 0 C2.64 0 5.28 0 8 0 C8.87803368 3.73164314 9.17423601 7.16680771 9 11 C8 12 8 12 6.15234375 12.09765625 C4.1015625 12.06510417 2.05078125 12.03255208 0 12 C0 8.04 0 4.08 0 0 Z " fill="#1E1E1E" transform="translate(31,165)"/>
<path d="M0 0 C6.15234375 -0.09765625 6.15234375 -0.09765625 8 0 C9 1 9 1 9 4.875 C8.979375 5.57367188 8.95875 6.27234375 8.9375 6.9921875 C8.9105259 9.20917431 8.9105259 9.20917431 10 12 C6.73045798 11.43628586 5.17424117 10.50037734 3 8 C3 9.65 3 11.3 3 13 C2.01 13 1.02 13 0 13 C0 8.71 0 4.42 0 0 Z " fill="#5C5C5C" transform="translate(52,165)"/>
<path d="M0 0 C2.33294775 -0.04241723 4.66702567 -0.04092937 7 0 C8 1 8 1 8 4.875 C7.979375 5.57367188 7.95875 6.27234375 7.9375 6.9921875 C7.9105259 9.20917431 7.9105259 9.20917431 9 12 C5.73045798 11.43628586 4.17424117 10.50037734 2 8 C2 9.32 2 10.64 2 12 C1.34 12 0.68 12 0 12 C0 8.04 0 4.08 0 0 Z " fill="#060606" transform="translate(108,165)"/>
<path d="M0 0 C1.89492187 0.01353516 1.89492187 0.01353516 3.828125 0.02734375 C4.79234375 0.03894531 5.7565625 0.05054688 6.75 0.0625 C6.75 0.3925 6.75 0.7225 6.75 1.0625 C2.46 1.0625 -1.83 1.0625 -6.25 1.0625 C-6.25 1.7225 -6.25 2.3825 -6.25 3.0625 C-5.26 3.0625 -4.27 3.0625 -3.25 3.0625 C-3.25 6.3625 -3.25 9.6625 -3.25 13.0625 C-3.58 13.0625 -3.91 13.0625 -4.25 13.0625 C-4.25 10.0925 -4.25 7.1225 -4.25 4.0625 C-5.24 4.0625 -6.23 4.0625 -7.25 4.0625 C-7.25 7.0325 -7.25 10.0025 -7.25 13.0625 C-8.57 13.0625 -9.89 13.0625 -11.25 13.0625 C-11.25 9.1025 -11.25 5.1425 -11.25 1.0625 C-7.26957092 0.06739273 -4.0846834 -0.03782114 0 0 Z " fill="#BFBFBF" transform="translate(130.25,163.9375)"/>
<path d="M0 0 C0.99 0 1.98 0 3 0 C3.33 2.97 3.66 5.94 4 9 C5.32 9.33 6.64 9.66 8 10 C8 6.7 8 3.4 8 0 C8.99 0 9.98 0 11 0 C11.05395478 1.62463842 11.09277195 3.24978541 11.125 4.875 C11.14820312 5.77992188 11.17140625 6.68484375 11.1953125 7.6171875 C11 10 11 10 9 12 C5.5 12.3125 5.5 12.3125 2 12 C-0.13586678 8.79619983 -0.23132175 7.98060033 -0.125 4.3125 C-0.10695313 3.50425781 -0.08890625 2.69601563 -0.0703125 1.86328125 C-0.04710938 1.24839844 -0.02390625 0.63351563 0 0 Z " fill="#252525" transform="translate(94,165)"/>
<path d="M0 0 C0.66 0 1.32 0 2 0 C2.33 3.63 2.66 7.26 3 11 C2.01 11.33 1.02 11.66 0 12 C0 11.34 0 10.68 0 10 C-0.78375 10.04125 -1.5675 10.0825 -2.375 10.125 C-5 10 -5 10 -7 8 C-6.44444444 3.44444444 -6.44444444 3.44444444 -5 2 C-3.33382885 1.95936168 -1.66611905 1.957279 0 2 C0 1.34 0 0.68 0 0 Z " fill="#BABABA" transform="translate(92,165)"/>
<path d="M0 0 C2.00720923 0.28674418 4.0085944 0.61866701 6 1 C6 1.99 6 2.98 6 4 C4.35 3.67 2.7 3.34 1 3 C2.25541557 5.51083114 3.50063488 5.87125446 6 7 C6.042721 8.66611905 6.04063832 10.33382885 6 12 C5 13 5 13 1.9375 13.0625 C0.968125 13.041875 -0.00125 13.02125 -1 13 C-1.33 12.34 -1.66 11.68 -2 11 C-0.35 11 1.3 11 3 11 C1.74458443 8.48916886 0.49936512 8.12874554 -2 7 C-1.125 1.125 -1.125 1.125 0 0 Z " fill="#434343" transform="translate(65,164)"/>
<path d="M0 0 C2.64 0 5.28 0 8 0 C8 0.66 8 1.32 8 2 C6.35 2 4.7 2 3 2 C3 2.99 3 3.98 3 5 C4.32 5 5.64 5 7 5 C7 5.66 7 6.32 7 7 C5.68 7 4.36 7 3 7 C3 7.99 3 8.98 3 10 C4.65 10 6.3 10 8 10 C8 10.66 8 11.32 8 12 C5.36 12 2.72 12 0 12 C0 8.04 0 4.08 0 0 Z " fill="#1E1E1E" transform="translate(160,165)"/>
<path d="M0 0 C2.64 0 5.28 0 8 0 C8 0.66 8 1.32 8 2 C6.35 2 4.7 2 3 2 C3 2.99 3 3.98 3 5 C4.32 5 5.64 5 7 5 C7 5.66 7 6.32 7 7 C5.68 7 4.36 7 3 7 C3 7.99 3 8.98 3 10 C4.65 10 6.3 10 8 10 C8 10.66 8 11.32 8 12 C5.36 12 2.72 12 0 12 C0 8.04 0 4.08 0 0 Z " fill="#252525" transform="translate(42,165)"/>
<path d="M0 0 C0.66 0.33 1.32 0.66 2 1 C2.02687279 2.81242052 2.04633715 4.62495233 2.0625 6.4375 C2.07410156 7.44683594 2.08570313 8.45617187 2.09765625 9.49609375 C2 12 2 12 1 13 C-0.51928038 13.07179964 -2.04167482 13.08392007 -3.5625 13.0625 C-4.38878906 13.05347656 -5.21507812 13.04445312 -6.06640625 13.03515625 C-6.70449219 13.02355469 -7.34257813 13.01195312 -8 13 C-8 12.67 -8 12.34 -8 12 C-5.36 12 -2.72 12 0 12 C0 11.34 0 10.68 0 10 C-1.65 10 -3.3 10 -5 10 C-5 9.01 -5 8.02 -5 7 C-3.68 7 -2.36 7 -1 7 C-1 6.34 -1 5.68 -1 5 C-2.32 5 -3.64 5 -5 5 C-5 4.01 -5 3.02 -5 2 C-3.35 2 -1.7 2 0 2 C0 1.34 0 0.68 0 0 Z " fill="#DEDEDE" transform="translate(50,165)"/>
<path d="M0 0 C3.625 -0.1875 3.625 -0.1875 7 0 C7.33 0.99 7.66 1.98 8 3 C5.69 3 3.38 3 1 3 C1.33 4.98 1.66 6.96 2 9 C4.97 9.495 4.97 9.495 8 10 C7.67 10.66 7.34 11.32 7 12 C3.625 12.1875 3.625 12.1875 0 12 C-2.31332486 8.53001271 -2.33957563 7.07490752 -2 3 C-1.34 2.01 -0.68 1.02 0 0 Z " fill="#1C1C1C" transform="translate(9,165)"/>
<path d="M0 0 C1.670625 0.061875 1.670625 0.061875 3.375 0.125 C3.375 0.785 3.375 1.445 3.375 2.125 C1.395 2.785 -0.585 3.445 -2.625 4.125 C-2.295 5.775 -1.965 7.425 -1.625 9.125 C0.025 9.455 1.675 9.785 3.375 10.125 C3.045 11.115 2.715 12.105 2.375 13.125 C-0.2914882 13.34120175 -2.06504321 13.43394168 -4.4375 12.125 C-6.41087049 8.80142865 -5.92812838 5.94441755 -5.625 2.125 C-3.625 0.125 -3.625 0.125 0 0 Z " fill="#1F1F1F" transform="translate(88.625,164.875)"/>
<path d="M0 0 C2.86724686 0.57344937 3.8614515 0.8614515 6 3 C6.66 2.01 7.32 1.02 8 0 C8.99 0 9.98 0 11 0 C10.566875 1.0209375 10.566875 1.0209375 10.125 2.0625 C8.87402645 5.32893093 7.92552045 8.62846123 7 12 C6.01 12 5.02 12 4 12 C3.566875 10.4221875 3.566875 10.4221875 3.125 8.8125 C2.22774807 5.77181289 1.23576581 2.91287656 0 0 Z " fill="#222222" transform="translate(18,165)"/>
<path d="M0 0 C2.31 0 4.62 0 7 0 C7 0.66 7 1.32 7 2 C5.35 2 3.7 2 2 2 C2 2.99 2 3.98 2 5 C3.32 5 4.64 5 6 5 C6 5.66 6 6.32 6 7 C4.68 7 3.36 7 2 7 C2 7.99 2 8.98 2 10 C3.65 10 5.3 10 7 10 C7 10.66 7 11.32 7 12 C4.69 12 2.38 12 0 12 C0 8.04 0 4.08 0 0 Z " fill="#161616" transform="translate(74,165)"/>
<path d="M0 0 C2.97 0 5.94 0 9 0 C9 0.66 9 1.32 9 2 C8.01 2 7.02 2 6 2 C6 5.63 6 9.26 6 13 C5.01 13 4.02 13 3 13 C3 9.37 3 5.74 3 2 C2.01 2 1.02 2 0 2 C0 1.34 0 0.68 0 0 Z " fill="#282828" transform="translate(149,165)"/>
<path d="M0 0 C2.97 0 5.94 0 9 0 C9 0.66 9 1.32 9 2 C8.01 2 7.02 2 6 2 C6 5.3 6 8.6 6 12 C5.01 12 4.02 12 3 12 C3 8.7 3 5.4 3 2 C2.01 2 1.02 2 0 2 C0 1.34 0 0.68 0 0 Z " fill="#1E1E1E" transform="translate(124,165)"/>
<path d="M0 0 C0.66 0 1.32 0 2 0 C2 1.65 2 3.3 2 5 C3.32 5 4.64 5 6 5 C6.99 6.98 7.98 8.96 9 11 C5.73045798 10.43628586 4.17424117 9.50037734 2 7 C2 8.32 2 9.64 2 11 C1.34 11 0.68 11 0 11 C0 7.37 0 3.74 0 0 Z " fill="#0F0F0F" transform="translate(53,166)"/>
<path d="M0 0 C3.63 0 7.26 0 11 0 C11 0.33 11 0.66 11 1 C9.02 1 7.04 1 5 1 C5 4.96 5 8.92 5 13 C4.67 13 4.34 13 4 13 C3.67 10.69 3.34 8.38 3 6 C0.64046906 8.35953094 0.50858587 9.77895617 0 13 C-0.33 13 -0.66 13 -1 13 C-1.50423019 7.70558305 -0.18923033 5.18586481 3 1 C2.01 0.67 1.02 0.34 0 0 Z " fill="#A4A4A4" transform="translate(26,164)"/>
<path d="M0 0 C0.99 0.33 1.98 0.66 3 1 C3 2.32 3 3.64 3 5 C4.32 5.66 5.64 6.32 7 7 C7 7.66 7 8.32 7 9 C5.02 9.66 3.04 10.32 1 11 C-1.78637633 6.8204355 -0.79562512 4.85331323 0 0 Z " fill="#D6D6D6" transform="translate(61,166)"/>
<path d="M0 0 C0.33 0 0.66 0 1 0 C1 3.96 1 7.92 1 12 C1.99 12.33 2.98 12.66 4 13 C1.03 13 -1.94 13 -5 13 C-4.67 12.34 -4.34 11.68 -4 11 C-3.01 11.33 -2.02 11.66 -1 12 C-1.66 11.01 -2.32 10.02 -3 9 C-2.54716981 2.54716981 -2.54716981 2.54716981 0 0 Z " fill="#C4C4C4" transform="translate(118,165)"/>
<path d="M0 0 C0.99 0 1.98 0 3 0 C3.03738281 0.62648437 3.07476562 1.25296875 3.11328125 1.8984375 C3.17902344 2.71570313 3.24476562 3.53296875 3.3125 4.375 C3.37050781 5.18710938 3.42851563 5.99921875 3.48828125 6.8359375 C3.82990528 9.37921338 3.82990528 9.37921338 7 11 C5.35 11.33 3.7 11.66 2 12 C-0.13586678 8.79619983 -0.23132175 7.98060033 -0.125 4.3125 C-0.10695313 3.50425781 -0.08890625 2.69601563 -0.0703125 1.86328125 C-0.04710938 1.24839844 -0.02390625 0.63351563 0 0 Z " fill="#2B2B2B" transform="translate(94,165)"/>
<path d="M0 0 C1.890625 0.21484375 1.890625 0.21484375 4 1 C5.046875 3.06640625 5.046875 3.06640625 5.75 5.5625 C5.99234375 6.38878906 6.2346875 7.21507812 6.484375 8.06640625 C6.65453125 8.70449219 6.8246875 9.34257812 7 10 C4.34701431 9.45186246 3.21228482 9.21228482 1.25 7.25 C-0.21079991 4.62056017 -0.24687966 2.9625559 0 0 Z " fill="#5C5C5C" transform="translate(110,167)"/>
<path d="M0 0 C0.66 0 1.32 0 2 0 C2 4.29 2 8.58 2 13 C0 11 0 11 -0.375 8.5 C-0.73647686 5.83529804 -0.73647686 5.83529804 -3.0625 4.6875 C-3.701875 4.460625 -4.34125 4.23375 -5 4 C-5 3.34 -5 2.68 -5 2 C-2.525 2.495 -2.525 2.495 0 3 C0 2.01 0 1.02 0 0 Z " fill="#D9D9D9" transform="translate(71,165)"/>
<path d="M0 0 C0.99 0 1.98 0 3 0 C3 3.96 3 7.92 3 12 C2.01 12 1.02 12 0 12 C0 8.04 0 4.08 0 0 Z " fill="#1F1F1F" transform="translate(119,165)"/>
<path d="M0 0 C0 1.65 0 3.3 0 5 C-2.31 5.33 -4.62 5.66 -7 6 C-7 4.68 -7 3.36 -7 2 C-4 0 -4 0 0 0 Z " fill="#FAFAFA" transform="translate(93,168)"/>
<path d="M0 0 C0.33 1.32 0.66 2.64 1 4 C2.65 4.33 4.3 4.66 6 5 C6 5.33 6 5.66 6 6 C4.35 6 2.7 6 1 6 C1 6.99 1 7.98 1 9 C-2.96 9 -6.92 9 -11 9 C-11 8.67 -11 8.34 -11 8 C-9.741875 7.979375 -8.48375 7.95875 -7.1875 7.9375 C-4.98300672 7.76957465 -4.98300672 7.76957465 -3 7 C-1.31016493 4.71019091 -0.81037139 2.78565167 0 0 Z " fill="#5C5C5C" transform="translate(171,169)"/>
<path d="M0 0 C0.66 0 1.32 0 2 0 C2.33 3.3 2.66 6.6 3 10 C3.99 10.33 4.98 10.66 6 11 C4.02 11 2.04 11 0 11 C0 7.37 0 3.74 0 0 Z " fill="#0F0F0F" transform="translate(31,166)"/>
<path d="M0 0 C2 2 2 2 2.125 5.125 C2.08375 6.07375 2.0425 7.0225 2 8 C-0.97 8 -3.94 8 -7 8 C-7 7.67 -7 7.34 -7 7 C-4.36 7 -1.72 7 1 7 C1 6.34 1 5.68 1 5 C-0.65 5 -2.3 5 -4 5 C-4 4.01 -4 3.02 -4 2 C-2.68 2 -1.36 2 0 2 C0 1.34 0 0.68 0 0 Z " fill="#C1C1C1" transform="translate(49,170)"/>
<path d="M0 0 C2.375 0.1875 2.375 0.1875 5 1 C6.92164209 4.05715786 7.03249175 5.7129895 6.625 9.3125 C6.41875 10.199375 6.2125 11.08625 6 12 C5.67 12 5.34 12 5 12 C4.80664062 11.36191406 4.61328125 10.72382813 4.4140625 10.06640625 C4.15367187 9.24011719 3.89328125 8.41382813 3.625 7.5625 C3.36976563 6.73878906 3.11453125 5.91507813 2.8515625 5.06640625 C2.19117773 2.82201984 2.19117773 2.82201984 0 2 C0 1.34 0 0.68 0 0 Z " fill="#343434" transform="translate(133,165)"/>
<path d="M0 0 C-0.33 0.99 -0.66 1.98 -1 3 C-3.3125 3.25 -3.3125 3.25 -6 3 C-7.8125 1 -7.8125 1 -9 -1 C-5.79937313 -2.60031344 -3.27728194 -1.03173691 0 0 Z " fill="#393939" transform="translate(92,175)"/>
<path d="M0 0 C2.64 0 5.28 0 8 0 C7.01 0.495 7.01 0.495 6 1 C6 2.32 6 3.64 6 5 C4.68 5 3.36 5 2 5 C2 3.68 2 2.36 2 1 C1.34 0.67 0.68 0.34 0 0 Z " fill="#717171" transform="translate(31,165)"/>
<path d="M0 0 C0.99 0 1.98 0 3 0 C3.042721 1.66611905 3.04063832 3.33382885 3 5 C2 6 2 6 -1.0625 6.0625 C-2.031875 6.041875 -3.00125 6.02125 -4 6 C-4.33 5.34 -4.66 4.68 -5 4 C-3.02 4 -1.04 4 1 4 C0.67 2.68 0.34 1.36 0 0 Z " fill="#1A1A1A" transform="translate(68,171)"/>
<path d="M0 0 C2.33294775 -0.04241723 4.66702567 -0.04092937 7 0 C8 1 8 1 8.0625 3.5625 C8.041875 4.366875 8.02125 5.17125 8 6 C7.34 6 6.68 6 6 6 C5.67 5.01 5.34 4.02 5 3 C2.49552484 1.78130071 2.49552484 1.78130071 0 1 C0 0.67 0 0.34 0 0 Z " fill="#212121" transform="translate(108,165)"/>
<path d="M0 0 C2.97 0.495 2.97 0.495 6 1 C6 1.99 6 2.98 6 4 C3.03 3.505 3.03 3.505 0 3 C-0.33 3.66 -0.66 4.32 -1 5 C-0.67 3.35 -0.34 1.7 0 0 Z " fill="#494949" transform="translate(65,164)"/>
<path d="M0 0 C1.32 0 2.64 0 4 0 C4 0.99 4 1.98 4 3 C4.66 3.33 5.32 3.66 6 4 C3 5 3 5 0 4 C0 2.68 0 1.36 0 0 Z " fill="#808080" transform="translate(34,172)"/>
<path d="M0 0 C0.33 1.32 0.66 2.64 1 4 C2.98 4 4.96 4 7 4 C7.66 5.32 8.32 6.64 9 8 C8.01 8 7.02 8 6 8 C5.67 7.34 5.34 6.68 5 6 C1.97065509 5.34227572 1.97065509 5.34227572 -1 5 C-0.67 3.35 -0.34 1.7 0 0 Z " fill="#101010" transform="translate(172,169)"/>
<path d="M0 0 C1.32 0 2.64 0 4 0 C4.99 1.98 5.98 3.96 7 6 C3.75728494 5.4409112 2.06942576 4.5867822 0 2 C0 1.34 0 0.68 0 0 Z " fill="#191919" transform="translate(55,171)"/>
<path d="M0 0 C0.99 0 1.98 0 3 0 C3 3.96 3 7.92 3 12 C2.67 12 2.34 12 2 12 C2 9.36 2 6.72 2 4 C1.34 4 0.68 4 0 4 C0 2.68 0 1.36 0 0 Z " fill="#0F0F0F" transform="translate(193,165)"/>
<path d="M0 0 C-1.75 4.875 -1.75 4.875 -4 6 C-4.99 5.67 -5.98 5.34 -7 5 C-5.24561575 1.4912315 -4.02303809 0 0 0 Z " fill="#3C3C3C" transform="translate(29,165)"/>
<path d="M0 0 C0.33 0 0.66 0 1 0 C1 3.3 1 6.6 1 10 C0.34 10 -0.32 10 -1 10 C-2.15837626 5.94568308 -1.83691257 3.78187881 0 0 Z " fill="#DBDBDB" transform="translate(41,165)"/>
<path d="M0 0 C1.134375 0.020625 2.26875 0.04125 3.4375 0.0625 C3.7675 1.0525 4.0975 2.0425 4.4375 3.0625 C-1.1875 3.3125 -1.1875 3.3125 -4.5625 1.0625 C-3.5625 0.0625 -3.5625 0.0625 0 0 Z " fill="#525252" transform="translate(12.5625,164.9375)"/>
<path d="M0 0 C2 3.75 2 3.75 2 6 C1.01 6.33 0.02 6.66 -1 7 C-1 6.34 -1 5.68 -1 5 C-2.65 5 -4.3 5 -6 5 C-2.25 3 -2.25 3 0 3 C0 2.01 0 1.02 0 0 Z " fill="#C6C6C6" transform="translate(93,170)"/>
<path d="M0 0 C0.33 0.66 0.66 1.32 1 2 C1.99 2 2.98 2 4 2 C4 3.65 4 5.3 4 7 C3.01 7 2.02 7 1 7 C0.67 4.69 0.34 2.38 0 0 Z " fill="#7B7B7B" transform="translate(172,166)"/>
<path d="M0 0 C0.33 0.99 0.66 1.98 1 3 C2.65 3 4.3 3 6 3 C6 3.66 6 4.32 6 5 C3.69 5 1.38 5 -1 5 C-0.67 3.35 -0.34 1.7 0 0 Z " fill="#1C1C1C" transform="translate(75,172)"/>
<path d="M0 0 C0.33 0.99 0.66 1.98 1 3 C0.525625 3.391875 0.05125 3.78375 -0.4375 4.1875 C-2.35179633 6.40808374 -2.61266988 8.13375709 -3 11 C-3.33 11 -3.66 11 -4 11 C-4.36630156 7.06225823 -4.30233203 5.43460229 -2 2.125 C-1.34 1.42375 -0.68 0.7225 0 0 Z " fill="#CFCFCF" transform="translate(29,166)"/>
</svg>
